# xmcd
#
# Track frame offsets: 
#        150
#        18752
#        35853
#        49756
#        76377
#        94635
#        119057
#        143749
#        162882
#        182742
#        195879
#        210039
#
# Disc length: 3083 seconds
#
# Revision: 0
# Processed by: cddbd v1.5.2PL0 Copyright (c) Steve Scherf et al.
# Submitted via: ExactAudioCopy v1.3
#
DISCID=930c090c
DTITLE=Christone ''Kingfish'' Ingram - Kingfish
DYEAR=2019
DGENRE=Blues
TTITLE0=Outside Of This Town
TTITLE1=Fresh Out
TTITLE2=It Ain't Right
TTITLE3=Been Here Before
TTITLE4=If You Love Me
TTITLE5=Love Ain't My Favorite Word
TTITLE6=Listen
TTITLE7=Before I'm Old
TTITLE8=Believe These Blues
TTITLE9=Trouble
TTITLE10=Hard Times
TTITLE11=That's Fine By Me
EXTD=
EXTT0=
EXTT1=
EXTT2=
EXTT3=
EXTT4=
EXTT5=
EXTT6=
EXTT7=
EXTT8=
EXTT9=
EXTT10=
EXTT11=
PLAYORDER=
